<svg xmlns="http://www.w3.org/2000/svg" width="159.717" height="40.613" viewBox="0 0 159.717 40.613">
  <g id="BuyChain-Logo-RGB" transform="translate(-34 -45)">
    <g id="Group_1359" data-name="Group 1359" transform="translate(34 45)">
      <g id="Group_1358" data-name="Group 1358" transform="translate(23.033 39.485)">
        <g id="Group_1356" data-name="Group 1356">
          <path id="Path_803" data-name="Path 803" d="M97.113,151.8v.185h-.3v.924H96.6v-.924h-.3V151.8Z" transform="translate(-96.3 -151.8)" fill="#69b3e7"/>
        </g>
        <g id="Group_1357" data-name="Group 1357" transform="translate(0.998)">
          <path id="Path_804" data-name="Path 804" d="M100.183,151.8v1.072h-.222v-.7l-.3.7h-.148l-.3-.7v.7H99V151.8h.259l.333.813.333-.813Z" transform="translate(-99 -151.8)" fill="#69b3e7"/>
        </g>
      </g>
      <path id="Path_805" data-name="Path 805" d="M84.947,68.135l4.4,7.653h8.429A1.407,1.407,0,0,1,99,77.9L95.262,84.44h9.391A20.007,20.007,0,0,0,101.7,67.1H85.539A.7.7,0,0,0,84.947,68.135Z" transform="translate(-66.055 -58.929)" fill="#69b3e7"/>
      <path id="Path_806" data-name="Path 806" d="M43.243,70.214l4.437-7.579L43.5,55.278a1.407,1.407,0,0,1,1.22-2.107h7.542L47.605,45A20.083,20.083,0,0,0,34,56.165l8.023,14.012A.7.7,0,0,0,43.243,70.214Z" transform="translate(-34 -45)" fill="#69b3e7"/>
      <path id="Path_807" data-name="Path 807" d="M68.657,114h-8.8l-4.215,7.283a1.406,1.406,0,0,1-2.44,0L49.4,114.776l-4.7,8.134a20.137,20.137,0,0,0,16.489,6.1l8.1-13.975A.7.7,0,0,0,68.657,114Z" transform="translate(-40.744 -88.49)" fill="#69b3e7"/>
    </g>
    <g id="Group_1368" data-name="Group 1368" transform="translate(82.063 50.989)">
      <g id="Group_1360" data-name="Group 1360" transform="translate(0 2.181)">
        <path id="Path_808" data-name="Path 808" d="M176.274,77.008a4.33,4.33,0,0,1,.961,2.736,4.472,4.472,0,0,1-.665,2.44,4.593,4.593,0,0,1-1.959,1.664,7.1,7.1,0,0,1-3.069.592H164V67.1h7.172a7.525,7.525,0,0,1,3.032.555,4.15,4.15,0,0,1,1.923,1.59,4.1,4.1,0,0,1,.665,2.329,3.978,3.978,0,0,1-.813,2.551,4.61,4.61,0,0,1-2.144,1.442A3.809,3.809,0,0,1,176.274,77.008Zm-8.762-2.736h3.18a2.977,2.977,0,0,0,1.923-.555,1.986,1.986,0,0,0,.665-1.59,2.065,2.065,0,0,0-.665-1.627,2.908,2.908,0,0,0-1.923-.555h-3.18Zm5.472,6.766a2.078,2.078,0,0,0,.7-1.7,2.179,2.179,0,0,0-.739-1.738,3.071,3.071,0,0,0-2-.629h-3.438V81.63h3.512A3.169,3.169,0,0,0,172.984,81.038Z" transform="translate(-164 -67.1)" fill="#280071"/>
      </g>
      <g id="Group_1361" data-name="Group 1361" transform="translate(14.382 5.768)">
        <path id="Path_809" data-name="Path 809" d="M216.025,76.8V90.553h-3.512V88.816a4.641,4.641,0,0,1-1.738,1.4,5.547,5.547,0,0,1-2.366.518,5.887,5.887,0,0,1-2.847-.665,4.859,4.859,0,0,1-1.96-2,6.617,6.617,0,0,1-.7-3.18V76.8h3.475v7.579a3.49,3.49,0,0,0,.813,2.514,3.31,3.31,0,0,0,4.51,0,3.55,3.55,0,0,0,.813-2.514V76.8Z" transform="translate(-202.9 -76.8)" fill="#280071"/>
      </g>
      <g id="Group_1362" data-name="Group 1362" transform="translate(61.224 2.181)">
        <path id="Path_810" data-name="Path 810" d="M340.211,71.167a4.49,4.49,0,0,1,1.886,2,7.075,7.075,0,0,1,.666,3.18v8.1h-3.475V76.86a3.49,3.49,0,0,0-.813-2.514,2.924,2.924,0,0,0-2.255-.887,3.008,3.008,0,0,0-2.292.887,3.564,3.564,0,0,0-.85,2.514V84.44H329.6V67.1h3.475v5.287a4.489,4.489,0,0,1,1.775-1.4,6.06,6.06,0,0,1,2.477-.518A5.839,5.839,0,0,1,340.211,71.167Z" transform="translate(-329.6 -67.1)" fill="#280071"/>
      </g>
      <g id="Group_1363" data-name="Group 1363" transform="translate(75.791 5.546)">
        <path id="Path_811" data-name="Path 811" d="M369.887,79.564a5.881,5.881,0,0,1,2.255-2.477,5.979,5.979,0,0,1,3.18-.887,5.7,5.7,0,0,1,2.7.629,5.127,5.127,0,0,1,1.849,1.553V76.422h3.512V90.175H379.87v-2a5.211,5.211,0,0,1-1.849,1.59,5.857,5.857,0,0,1-2.736.629,5.98,5.98,0,0,1-3.18-.887A6.211,6.211,0,0,1,369.85,87a8.057,8.057,0,0,1-.85-3.734A8.929,8.929,0,0,1,369.887,79.564Zm9.5,1.553a3.745,3.745,0,0,0-1.331-1.4,3.5,3.5,0,0,0-1.812-.481,3.283,3.283,0,0,0-1.775.481,3.64,3.64,0,0,0-1.331,1.368,4.381,4.381,0,0,0-.518,2.144,4.635,4.635,0,0,0,.518,2.181,3.6,3.6,0,0,0,1.331,1.442,3.373,3.373,0,0,0,1.775.481,3.488,3.488,0,0,0,3.143-1.886,4.425,4.425,0,0,0,.481-2.181A4.083,4.083,0,0,0,379.389,81.117Z" transform="translate(-369 -76.2)" fill="#280071"/>
      </g>
      <g id="Group_1364" data-name="Group 1364" transform="translate(92.613 5.768)">
        <rect id="Rectangle_1556" data-name="Rectangle 1556" width="3.475" height="13.79" fill="#280071"/>
      </g>
      <g id="Group_1365" data-name="Group 1365" transform="translate(98.492 5.546)">
        <path id="Path_812" data-name="Path 812" d="M442.046,77.753a5.982,5.982,0,0,1,1.516,4.326v8.1h-3.475V82.6a3.49,3.49,0,0,0-.813-2.514,2.924,2.924,0,0,0-2.255-.887,3.008,3.008,0,0,0-2.292.887,3.564,3.564,0,0,0-.85,2.514v7.579H430.4V76.422h3.475v1.7a5.077,5.077,0,0,1,1.775-1.4,5.672,5.672,0,0,1,2.366-.518A5.319,5.319,0,0,1,442.046,77.753Z" transform="translate(-430.4 -76.2)" fill="#280071"/>
      </g>
      <path id="Path_813" data-name="Path 813" d="M251.754,76.8l-3.586,9.613L244.619,76.8H240.7l5.509,13.421L243.251,97.1h3.7l8.54-20.3Z" transform="translate(-212.343 -71.032)" fill="#280071"/>
      <g id="Group_1366" data-name="Group 1366" transform="translate(43.402 1.996)">
        <path id="Path_814" data-name="Path 814" d="M282.5,70.889a8.026,8.026,0,0,1,3.143-3.143,9.147,9.147,0,0,1,4.474-1.146,8.89,8.89,0,0,1,5.1,1.479,7.942,7.942,0,0,1,3.069,4.141H294.3a4.279,4.279,0,0,0-1.664-1.849,5.082,5.082,0,0,0-7.062,2.07,6.544,6.544,0,0,0-.665,3.032,6.652,6.652,0,0,0,.665,3.032,4.415,4.415,0,0,0,1.849,2,5.441,5.441,0,0,0,5.213.074A3.8,3.8,0,0,0,294.3,78.69h3.993a7.881,7.881,0,0,1-3.032,4.141,9.429,9.429,0,0,1-9.576.333,8.027,8.027,0,0,1-3.143-3.143,8.983,8.983,0,0,1-1.146-4.584A8.563,8.563,0,0,1,282.5,70.889Z" transform="translate(-281.393 -66.6)" fill="#280071"/>
      </g>
      <g id="Group_1367" data-name="Group 1367" transform="translate(92.169 0)">
        <path id="Path_815" data-name="Path 815" d="M417.663,63.381a2.181,2.181,0,1,0-2.181,2.181A2.185,2.185,0,0,0,417.663,63.381Z" transform="translate(-413.3 -61.2)" fill="#280071"/>
      </g>
    </g>
  </g>
</svg>
