<svg xmlns="http://www.w3.org/2000/svg" width="865" height="878" viewBox="0 0 865 878">
  <g id="Group_1405" data-name="Group 1405" transform="translate(-528 -1303)">
    <g id="Group_1393" data-name="Group 1393" transform="translate(-163 -4733)">
      <path id="Path_805" data-name="Path 805" d="M85.086,69.733,96.276,89.2h21.441a3.579,3.579,0,0,1,3.1,5.36l-9.5,16.645h23.886a50.889,50.889,0,0,0-7.523-44.1H86.59A1.774,1.774,0,0,0,85.086,69.733Z" transform="translate(1037.109 6361.168)" fill="#69b3e7"/>
      <path id="Path_806" data-name="Path 806" d="M57.51,109.134,68.794,89.856,58.168,71.143a3.579,3.579,0,0,1,3.1-5.36H80.455L68.606,45A51.081,51.081,0,0,0,34,73.4L54.406,109.04A1.773,1.773,0,0,0,57.51,109.134Z" transform="translate(1040.141 6362.485)" fill="#69b3e7"/>
      <path id="Path_807" data-name="Path 807" d="M105.637,114H83.256l-10.72,18.526a3.577,3.577,0,0,1-6.207,0l-9.686-16.551L44.7,136.663A51.22,51.22,0,0,0,86.641,152.18l20.594-35.547A1.785,1.785,0,0,0,105.637,114Z" transform="translate(1039.503 6358.372)" fill="#69b3e7"/>
    </g>
    <text id="Faster" transform="translate(1307 1911)" fill="#280071" font-size="24" font-family="Poppins-Bold, Poppins" font-weight="700"><tspan x="-38.808" y="0">Faster</tspan></text>
    <text id="Smarter" transform="translate(605 1911)" fill="#280071" font-size="24" font-family="Poppins-Bold, Poppins" font-weight="700"><tspan x="-50.772" y="0">Smarter</tspan></text>
    <text id="Unconstrained" transform="translate(961 1328)" fill="#280071" font-size="24" font-family="Poppins-Bold, Poppins" font-weight="700"><tspan x="-91.56" y="0">Unconstrained</tspan></text>
    <g id="Sell_Circle" data-name="Sell Circle">
      <g id="Ellipse_123" data-name="Ellipse 123" transform="translate(855 1353)" fill="#b4ecf0" stroke="#e9e5f1" stroke-width="8" opacity="0.4">
        <ellipse cx="269" cy="268.5" rx="269" ry="268.5" stroke="none"/>
        <ellipse cx="269" cy="268.5" rx="265" ry="264.5" fill="none"/>
      </g>
      <text id="Sell" transform="translate(1190 1605)" fill="#280071" font-size="48" font-family="Poppins-Bold, Poppins" font-weight="700"><tspan x="-43.704" y="0">Sell</tspan></text>
      <g id="Ellipse_127" data-name="Ellipse 127" transform="translate(855 1353)" fill="none" stroke="#280071" stroke-width="8">
        <ellipse cx="269" cy="268.5" rx="269" ry="268.5" stroke="none"/>
        <ellipse cx="269" cy="268.5" rx="265" ry="264.5" fill="none"/>
      </g>
    </g>
    <g id="Manage_Circle" data-name="Manage Circle">
      <text id="Manage" transform="translate(960 2005)" fill="#280071" font-size="48" font-family="Poppins-Bold, Poppins" font-weight="700"><tspan x="-101.88" y="0">Manage</tspan></text>
      <g id="Ellipse_125" data-name="Ellipse 125" transform="translate(692 1644)" fill="none" stroke="#280071" stroke-width="8">
        <ellipse cx="269" cy="268.5" rx="269" ry="268.5" stroke="none"/>
        <ellipse cx="269" cy="268.5" rx="265" ry="264.5" fill="none"/>
      </g>
      <g id="Ellipse_124" data-name="Ellipse 124" transform="translate(692 1644)" fill="#5b2fa0" stroke="#e9e5f1" stroke-width="8" opacity="0.2">
        <ellipse cx="269" cy="268.5" rx="269" ry="268.5" stroke="none"/>
        <ellipse cx="269" cy="268.5" rx="265" ry="264.5" fill="none"/>
      </g>
    </g>
    <g id="Buy_Circle" data-name="Buy Circle">
      <g id="Ellipse_122" data-name="Ellipse 122" transform="translate(528 1353)" fill="#9ee5ff" stroke="#e9e5f1" stroke-width="8" opacity="0.4">
        <circle cx="268.5" cy="268.5" r="268.5" stroke="none"/>
        <circle cx="268.5" cy="268.5" r="264.5" fill="none"/>
      </g>
      <text id="Buy" transform="translate(728 1605)" fill="#280071" font-size="48" font-family="Poppins-Bold, Poppins" font-weight="700"><tspan x="-47.16" y="0">Buy</tspan></text>
      <g id="Ellipse_126" data-name="Ellipse 126" transform="translate(528 1353)" fill="none" stroke="#280071" stroke-width="8">
        <circle cx="268.5" cy="268.5" r="268.5" stroke="none"/>
        <circle cx="268.5" cy="268.5" r="264.5" fill="none"/>
      </g>
    </g>
  </g>
</svg>
