<svg xmlns="http://www.w3.org/2000/svg" width="640" height="659.561" viewBox="0 0 640 659.561">
  <g id="Group_1369" data-name="Group 1369" transform="translate(-34 -45)" opacity="0.48">
    <path id="Path_805" data-name="Path 805" d="M86.315,83.911l71.447,124.282H294.652c17.411,0,28.819,19.213,19.813,34.223l-60.64,106.27h152.5c24.016-82.855,19.213-185.523-48.032-281.586H95.921C87.515,67.1,82.112,76.706,86.315,83.911Z" transform="translate(254.488 110.588)" fill="#69b3e7"/>
    <path id="Path_806" data-name="Path 806" d="M184.1,454.471l72.048-123.081L188.3,211.91c-9.006-15.01,2.4-34.223,19.813-34.223H330.6L254.946,45C170.891,65.413,83.233,121.25,34,226.32L164.286,453.87C168.489,461.676,179.9,462.276,184.1,454.471Z" transform="translate(0 0)" fill="#69b3e7"/>
    <path id="Path_807" data-name="Path 807" d="M433.757,114H290.863L222.417,232.278c-9.006,15.01-30.62,15.61-39.626,0L120.95,126.608,44.7,258.7c59.439,61.841,153.7,109.873,267.777,99.065l131.487-226.95C448.167,123.606,442.763,114,433.757,114Z" transform="translate(53.542 345.274)" fill="#69b3e7"/>
  </g>
</svg>
