<svg xmlns="http://www.w3.org/2000/svg" width="481.172" height="495.878" viewBox="0 0 481.172 495.878">
  <g id="Group_1395" data-name="Group 1395" transform="translate(-34 -45)">
    <path id="Path_805" data-name="Path 805" d="M85.953,79.739l53.716,93.439H242.588c13.09,0,21.667,14.445,14.9,25.73l-45.591,79.9H326.548C344.6,216.512,340.992,139.324,290.436,67.1H93.175A8.517,8.517,0,0,0,85.953,79.739Z" transform="translate(178.711 77.659)" fill="#69b3e7"/>
    <path id="Path_806" data-name="Path 806" d="M146.849,352.853l54.168-92.536-51.008-89.828c-6.771-11.285,1.806-25.73,14.9-25.73H256.99L200.114,45C136.919,60.348,71.015,102.327,34,181.322L131.953,352.4C135.113,358.27,143.689,358.721,146.849,352.853Z" transform="translate(0 0)" fill="#69b3e7"/>
    <path id="Path_807" data-name="Path 807" d="M337.205,114H229.773l-51.459,88.925c-6.771,11.285-23.021,11.736-29.792,0l-46.494-79.446L44.7,222.787c44.688,46.494,115.558,82.606,201.323,74.481l98.856-170.628C348.039,121.222,343.976,114,337.205,114Z" transform="translate(37.599 242.464)" fill="#69b3e7"/>
  </g>
</svg>
